<svg width="375" height="172" viewBox="0 0 375 172" fill="none" xmlns="http://www.w3.org/2000/svg">
<g clip-path="url(#clip0_2_15)">
<path d="M0.00012207 0H375V172H0.00012207V0Z" fill="#483EFF"/>
<path fill-rule="evenodd" clip-rule="evenodd" d="M-71.4828 215.677C-16.9358 344.323 221.041 419.809 283.143 315.529C345.245 211.249 188.108 192.325 132.56 84.566C77.0132 -23.193 33.8492 -90.449 -46.4128 -65.9C-126.675 -41.35 -126.029 87.03 -71.4828 215.677Z" fill="#6259FF"/>
<path d="M-21.1649 221.127C32.0361 221.127 75.1641 177.979 75.1641 124.754C75.1641 71.5286 32.0361 28.381 -21.1649 28.381C-74.3659 28.381 -117.494 71.5286 -117.494 124.754C-117.494 177.979 -74.3659 221.127 -21.1649 221.127Z" fill="#FFAF7E"/>
<path fill-rule="evenodd" clip-rule="evenodd" d="M313.851 299.189C401.161 258.499 447.436 92.664 374.104 52.369C300.771 12.076 291.517 120.834 218.619 161.712C145.721 202.589 100.427 233.957 119.271 288.685C138.116 343.413 226.541 339.879 313.851 299.189Z" fill="#F9818E"/>
<path d="M216.307 109.168L231.57 93.619M279.843 117.059L261.848 101.947M248.331 137.794L238.391 159.087" stroke="white" stroke-width="5" stroke-linecap="round" stroke-linejoin="bevel"/>
</g>
<defs>
<clipPath id="clip0_2_15">
<rect width="375" height="172" fill="white"/>
</clipPath>
</defs>
</svg>
